<svg width="30" height="24" viewBox="0 0 30 24" fill="none" xmlns="http://www.w3.org/2000/svg">
<path d="M27.1875 24H2.8125C1.25918 24 0 22.6569 0 21V3C0 1.34313 1.25918 0 2.8125 0H27.1875C28.7408 0 30 1.34313 30 3V21C30 22.6569 28.7408 24 27.1875 24ZM6.5625 3.5C4.75031 3.5 3.28125 5.067 3.28125 7C3.28125 8.933 4.75031 10.5 6.5625 10.5C8.37469 10.5 9.84375 8.933 9.84375 7C9.84375 5.067 8.37469 3.5 6.5625 3.5ZM3.75 20H26.25V13L21.1222 7.53031C20.8476 7.23744 20.4024 7.23744 20.1278 7.53031L12.1875 16L8.93467 12.5303C8.6601 12.2374 8.2149 12.2374 7.94027 12.5303L3.75 17V20Z" fill="#BDBDBD"/>
</svg>
